# xmcd
#
# Track frame offsets:
# 150
# 21394
# 43863
# 62739
# 91144
# 104201
# 125659
# 143202
# 161150
# 184026
# 198122
# 228766
# 243168
# 265038
# 284013
#
# Disc length: 4038 seconds
#
#
# Revision: 0
# Processed by: cddbd v1.5PL3 Copyright (c) Steve Scherf et al.
# Submitted via: FreeRIP 2.60 
#
DISCID=da0fc40f
DTITLE=Mean Gene Kelton and the Die Hards - Mean Guitar
DYEAR=2003
DGENRE=Blues
TTITLE0=Mean Guitar
TTITLE1=Even Meaner
TTITLE2=Give Blues A Chance
TTITLE3=Ghost In My House
TTITLE4=Two Thangs
TTITLE5=Sweet Mother Blues
TTITLE6=Guess Who
TTITLE7=If Everybody Loved The Blues
TTITLE8=Why Do You Punish Me
TTITLE9=I Love My Job
TTITLE10=Price Of The Blues
TTITLE11=So Wrong ... So Right
TTITLE12=These Blues Are Kickin' My Ass
TTITLE13=Runnin' From The Law (Inst.)
TTITLE14=Part On The Levee
EXTD=Bluesfestradio.com
EXTT0=
EXTT1=
EXTT2=
EXTT3=
EXTT4=
EXTT5=
EXTT6=
EXTT7=
EXTT8=
EXTT9=
EXTT10=
EXTT11=
EXTT12=
EXTT13=
EXTT14=
PLAYORDER=
